# xmcd
#
# Track frame offsets: 
#        150
#        24992
#        57189
#        77218
#        124916
#        183251
#        213203
#        268829
#
# Disc length: 4677 seconds
#
# Revision: 0
# Processed by: cddbd v1.5.2PL0 Copyright (c) Steve Scherf et al.
# Submitted via: ExactAudioCopy v1.0b3
#
DISCID=69124308
DTITLE=The Allman Brothers Band - 5-13-09 - Fox Theater, Oakland - 40t
DTITLE=h Anniversary Tour - Disc 1 of 3
DYEAR=2009
DGENRE=Blues
TTITLE0=Done Somebody Wrong
TTITLE1=You Don't Love Me
TTITLE2=Midnight Rider
TTITLE3=New Instrumental
TTITLE4=The Sky Is Crying
TTITLE5=Come And Go Blues
TTITLE6=Good Morning Little Schoolgirl
TTITLE7=Whipping Post
EXTD=
EXTT0=
EXTT1=
EXTT2=
EXTT3=
EXTT4=
EXTT5=
EXTT6=
EXTT7=
PLAYORDER=
